<?xml version="1.0" encoding="UTF-8" standalone="no"?>
<svg width="1440px" height="1024px" viewBox="0 0 1440 1024" version="1.1" xmlns="http://www.w3.org/2000/svg" xmlns:xlink="http://www.w3.org/1999/xlink" xmlns:sketch="http://www.bohemiancoding.com/sketch/ns">
    <!-- Generator: Sketch 3.2.1 (9977) - http://www.bohemiancoding.com/sketch -->
    <title>2 - Choix</title>
    <desc>Created with Sketch.</desc>
    <defs>
        <linearGradient x1="50%" y1="0%" x2="50%" y2="100%" id="linearGradient-1">
            <stop stop-color="#836CB4" offset="0%"></stop>
            <stop stop-color="#6C8AB4" offset="100%"></stop>
        </linearGradient>
        <path id="path-2" d="M26,13.001 C26,5.823 20.18,0 13,0 C5.82,0 0,5.823 0,13.001 C0,20.178 5.82,26.001 13,26.001 C20.18,26.001 26,20.178 26,13.001 L26,13.001 Z"></path>
        <filter x="-50%" y="-50%" width="200%" height="200%" filterUnits="objectBoundingBox" id="filter-4">
            <feOffset dx="0" dy="2" in="SourceAlpha" result="shadowOffsetOuter1"></feOffset>
            <feGaussianBlur stdDeviation="2" in="shadowOffsetOuter1" result="shadowBlurOuter1"></feGaussianBlur>
            <feColorMatrix values="0 0 0 0 0.862745098   0 0 0 0 0.862745098   0 0 0 0 0.862745098  0 0 0 0.7 0" in="shadowBlurOuter1" type="matrix" result="shadowMatrixOuter1"></feColorMatrix>
            <feMerge>
                <feMergeNode in="shadowMatrixOuter1"></feMergeNode>
                <feMergeNode in="SourceGraphic"></feMergeNode>
            </feMerge>
        </filter>
    </defs>
    <g id="Page-1" stroke="none" stroke-width="1" fill="none" fill-rule="evenodd" sketch:type="MSPage">
        <g id="2---Choix" sketch:type="MSArtboardGroup">
            <rect id="background" fill="url(#linearGradient-1)" sketch:type="MSShapeGroup" x="0" y="0" width="1440" height="1024"></rect>
            <g id="NavBar" sketch:type="MSLayerGroup" transform="translate(136.000000, 169.000000)">
                <rect id="Rectangle-1" fill="#282828" sketch:type="MSShapeGroup" x="0" y="0" width="1167" height="52"></rect>
                <text id="Superviseur" fill="#FFFFFF" sketch:type="MSTextLayer" font-family="Helvetica Neue" font-size="14" font-weight="normal">
                    <tspan x="1031" y="30">Superviseur</tspan>
                </text>
                <text id="Optimod_lyon" fill="#FFFFFF" sketch:type="MSTextLayer" font-family="Helvetica Neue" font-size="14" font-weight="normal">
                    <tspan x="17" y="29">Optimod_lyon</tspan>
                </text>
                <g id="Clip-6-+-Fill-5-+-Fill-7" transform="translate(1120.000000, 12.000000)">
                    <mask id="mask-3" sketch:name="Clip 6" fill="white">
                        <use xlink:href="#path-2"></use>
                    </mask>
                    <use id="Clip-6" sketch:type="MSShapeGroup" xlink:href="#path-2"></use>
                    <path d="M0,0 L26,0 L26,26 L1.11022302e-15,26 L1.11022302e-15,26 L0,0 L0,0 Z" id="Fill-5" fill="#DDDDDD" sketch:type="MSShapeGroup" mask="url(#mask-3)"></path>
                    <path d="M21.242,20.408 C21.205,18.331 19.626,17.617 18.475,17.095 C18.149,16.947 17.843,16.809 17.625,16.662 C17.422,16.528 17.233,16.419 17.059,16.318 C16.363,15.916 16.046,15.735 16.046,14.526 C16.046,13.015 17.285,12.039 17.296,12.029 L17.36,11.981 L17.397,11.906 C17.813,11.059 17.607,10.342 17.471,10.02 C18.372,8.019 17.281,6.363 17.049,6.047 C16.462,4.358 15.209,4 14.256,4 C13.127,4 12.123,4.495 12.108,4.504 C11.062,4.922 10.35,5.59 9.988,6.487 C9.406,7.936 9.934,9.529 10.126,10.018 C9.657,11.151 10.198,11.924 10.222,11.957 L10.295,12.031 C10.307,12.04 11.543,12.996 11.543,14.526 C11.543,16.008 10.73,16.279 9.701,16.623 L9.567,16.666 C8.409,17.048 6,17.84 6,20.416 L6,20.762 L21.249,20.762 L21.242,20.408" id="Fill-7" fill="#999999" sketch:type="MSShapeGroup" mask="url(#mask-3)"></path>
                </g>
            </g>
            <rect id="right_column" fill-opacity="0.5" fill="#282828" sketch:type="MSShapeGroup" x="135.938047" y="218" width="1167" height="637"></rect>
            <g id="Group" sketch:type="MSLayerGroup" transform="translate(565.000000, 414.000000)">
                <rect id="Rectangle-2" stroke="#DCDCDC" fill-opacity="0.9" fill="#FFFFFF" filter="url(#filter-4)" sketch:type="MSShapeGroup" x="0" y="0" width="311" height="197" rx="8"></rect>
                <g id="Standard" transform="translate(37.000000, 42.000000)">
                    <rect id="Rectangle-2" stroke="#449CFA" stroke-width="2" sketch:type="MSShapeGroup" x="0" y="0" width="237" height="44" rx="5"></rect>
                    <text id="Préparation-des-livr" sketch:type="MSTextLayer" font-family="Helvetica Neue" font-size="16" font-weight="420" sketch:alignment="middle" fill="#4592E6">
                        <tspan x="22.74" y="27">Préparation des livraisons</tspan>
                    </text>
                </g>
                <g id="Standard-2" transform="translate(37.000000, 112.000000)">
                    <rect id="Rectangle-2" stroke="#449CFA" stroke-width="2" sketch:type="MSShapeGroup" x="0" y="0" width="237" height="44" rx="5"></rect>
                    <text id="Supervision-des-livr" sketch:type="MSTextLayer" font-family="Helvetica Neue" font-size="16" font-weight="420" sketch:alignment="middle" fill="#4592E6">
                        <tspan x="22.3" y="27">Supervision des livraisons</tspan>
                    </text>
                </g>
            </g>
        </g>
    </g>
</svg>