<?xml version="1.0" encoding="UTF-8" standalone="no"?>
<svg width="20px" height="20px" viewBox="0 0 20 20" version="1.1" xmlns="http://www.w3.org/2000/svg" xmlns:xlink="http://www.w3.org/1999/xlink" xmlns:sketch="http://www.bohemiancoding.com/sketch/ns">
    <!-- Generator: Sketch 3.2.1 (9977) - http://www.bohemiancoding.com/sketch -->
    <title>Fill 105</title>
    <desc>Created with Sketch.</desc>
    <defs></defs>
    <g id="Page-1" stroke="none" stroke-width="1" fill="none" fill-rule="evenodd" sketch:type="MSPage">
        <path d="M0.0754020515,19.4310848 C-0.0531351177,19.0518079 -0.0170877935,18.6836863 0.181646796,18.3267199 L9.31679764,0.489553951 C9.5069947,0.132587528 9.73418771,-0.0291628819 10.0002739,0.00430272028 C10.2654114,0.0377683224 10.4930787,0.238561935 10.6828015,0.606683559 L19.8184266,18.2765215 C20.0176355,18.6334879 20.0527343,19.0099759 19.9246714,19.4059856 C19.7966085,19.8019952 19.5570835,20 19.2065708,20 L0.793502694,20 C0.44251559,20 0.202990607,19.8103616 0.0754020515,19.4310848 C0.0754020515,19.4310848 0.202990607,19.8103616 0.0754020515,19.4310848 L0.0754020515,19.4310848 L0.0754020515,19.4310848 Z M16.3317966,16.6534398 L10.0002739,4.55562461 L3.66780249,16.6534398 L8.57735318,16.6534398 L8.57735318,14.9801597 L11.4231946,14.9801597 L11.4231946,16.6534398 L16.3317966,16.6534398 L16.3317966,16.6534398 L16.3317966,16.6534398 L16.3317966,16.6534398 Z M11.4231946,9.96031936 L10.0002739,14.9801597 L8.57735318,9.96031936 L8.57735318,8.28703925 L11.4231946,8.28703925 L11.4231946,9.96031936 L11.4231946,9.96031936 Z" id="Fill-105" fill="#D0011B" sketch:type="MSShapeGroup"></path>
    </g>
</svg>