<?xml version="1.0" encoding="UTF-8" standalone="no"?>
<svg width="30px" height="26px" viewBox="0 0 30 26" version="1.1" xmlns="http://www.w3.org/2000/svg" xmlns:xlink="http://www.w3.org/1999/xlink" xmlns:sketch="http://www.bohemiancoding.com/sketch/ns">
    <!-- Generator: Sketch 3.2.1 (9977) - http://www.bohemiancoding.com/sketch -->
    <title>Home</title>
    <desc>Created with Sketch.</desc>
    <defs></defs>
    <g id="Page-1" stroke="none" stroke-width="1" fill="none" fill-rule="evenodd" sketch:type="MSPage">
        <path d="M28.923734,11.9836401 L15.7523162,0.404907975 C15.1385502,-0.134969325 14.1442493,-0.134969325 13.5386669,0.404907975 L0.371340887,11.9836401 C-0.242425087,12.5235174 -0.0787541603,12.9611452 0.739600472,12.9611452 L4.80273122,12.9611452 L4.80273122,24.8179959 C4.80273122,25.4642127 5.33466173,26 5.98525366,26 L10.9567581,26 L10.9567581,18.200409 C10.9567581,17.5541922 11.4886886,17.0184049 12.1392805,17.0184049 L17.1598862,17.0184049 C17.8145699,17.0184049 18.3424086,17.5419223 18.3424086,18.200409 L18.3424086,26 L23.313913,26 C23.9685967,26 24.4964354,25.4683027 24.4964354,24.8179959 L24.4964354,12.9570552 L28.5595662,12.9570552 C29.3656455,12.9570552 29.5293164,12.5235174 28.923734,11.9836401 L28.923734,11.9836401 Z" id="Home" fill="#000000" sketch:type="MSShapeGroup"></path>
    </g>
</svg>