<?xml version="1.0" encoding="UTF-8" standalone="no"?>
<svg width="46px" height="26px" viewBox="0 0 46 26" version="1.1" xmlns="http://www.w3.org/2000/svg" xmlns:xlink="http://www.w3.org/1999/xlink" xmlns:sketch="http://www.bohemiancoding.com/sketch/ns">
    <!-- Generator: Sketch 3.2.1 (9977) - http://www.bohemiancoding.com/sketch -->
    <title>Shape</title>
    <desc>Created with Sketch.</desc>
    <defs></defs>
    <g id="Page-1" stroke="none" stroke-width="1" fill="none" fill-rule="evenodd" sketch:type="MSPage">
        <path d="M16.658894,17.7612437 C14.5764382,17.7612437 12.8935329,19.4501831 12.8935329,21.5326389 C12.8935329,23.6090041 14.5764382,25.298 16.658894,25.298 C18.7413498,25.298 20.4241987,23.6090041 20.4241987,21.5326389 C20.4241987,19.4501831 18.7413498,17.7612437 16.658894,17.7612437 L16.658894,17.7612437 Z M16.658894,23.4152913 C15.6176379,23.4152913 14.7761853,22.5677481 14.7761853,21.5325825 C14.7761853,20.4913828 15.6176379,19.6499302 16.658894,19.6499302 C17.7000937,19.6499302 18.5415464,20.4913828 18.5415464,21.5325825 C18.5415464,22.5678044 17.7000937,23.4152913 16.658894,23.4152913 L16.658894,23.4152913 Z M45.0575408,14.975613 L45.0575408,18.9961562 C45.0575408,19.9991773 44.2444542,20.8122074 43.2414896,20.8122074 L41.2982702,20.8122074 C40.9471621,18.4028929 38.8707968,16.5504677 36.3645977,16.5504677 C33.864489,16.5504677 31.7880674,18.4028929 31.4369593,20.8122074 L21.5877731,20.8122074 C21.2366649,18.4028929 19.1602997,16.5504677 16.6601347,16.5504677 C14.160026,16.5504677 12.0836044,18.4028929 11.7325527,20.8122074 L9.29898878,20.8122074 C8.29596773,20.8122074 7.48293757,19.9991209 7.48293757,18.9961562 L7.48293757,14.975613 L45.0575408,14.975613 L45.0575408,14.975613 Z M36.3693912,17.7612437 C34.2869354,17.7612437 32.5979959,19.4501831 32.5979959,21.5326389 C32.5979959,23.6090041 34.2869918,25.298 36.3693912,25.298 C38.4457564,25.298 40.1346959,23.6090041 40.1346959,21.5326389 C40.1346959,19.4501831 38.4457564,17.7612437 36.3693912,17.7612437 L36.3693912,17.7612437 Z M36.3693912,23.4152913 C35.3281351,23.4152913 34.4866824,22.5677481 34.4866824,21.5325825 C34.4866824,20.4913828 35.3281351,19.6499302 36.3693912,19.6499302 C37.4045567,19.6499302 38.2520435,20.4913828 38.2520435,21.5325825 C38.2520435,22.5678044 37.4045567,23.4152913 36.3693912,23.4152913 L36.3693912,23.4152913 Z M44.3419592,10.92676 L37.2048097,3.86822348 C36.7507828,3.42028712 36.1393606,3.16600724 35.5037455,3.16600724 L31.9018702,3.16600724 L31.9018702,1.81605121 C31.9018702,0.811169166 31.0906446,-1.77635684e-15 30.085819,-1.77635684e-15 L9.29769172,-1.77635684e-15 C8.29884382,-1.77635684e-15 7.48164051,0.81122556 7.48164051,1.81605121 L7.48164051,2.10061459 L0.112035547,2.949906 L13.1707651,4.65040621 L-0.0575407662,5.96449575 L13.1241838,7.83863263 L-0.0575407662,8.98156683 L7.48214805,10.4035942 L7.48164051,13.9716896 L45.0563001,13.9716896 L45.0563001,12.6459265 C45.0563001,11.9981868 44.7959861,11.3807869 44.3419592,10.92676 L44.3419592,10.92676 Z M41.2304284,11.1628246 L34.3233094,11.1628246 C34.1659142,11.1628246 34.038746,11.0357129 34.038746,10.8783176 L34.038746,5.54509467 C34.038746,5.38769943 34.1658578,5.26053129 34.3233094,5.26053129 L35.6369478,5.26053129 C35.7095831,5.26053129 35.7822184,5.29081479 35.8367512,5.33925711 L41.4241977,10.6724801 C41.6117636,10.8480341 41.4846519,11.1628246 41.2304284,11.1628246 L41.2304284,11.1628246 Z" id="Shape" fill="#000000" sketch:type="MSShapeGroup"></path>
    </g>
</svg>